<mxfile host="app.diagrams.net" agent="Mozilla/5.0 (Macintosh; Intel Mac OS X 10_15_7) AppleWebKit/605.1.15 (KHTML, like Gecko) Version/18.0.1 Safari/605.1.15" version="25.0.3">
  <diagram name="Page-1" id="aAW-CGnsQSOdgqOez92Y">
    <mxGraphModel dx="572" dy="473" grid="1" gridSize="10" guides="1" tooltips="1" connect="1" arrows="1" fold="1" page="1" pageScale="1" pageWidth="1654" pageHeight="1173" background="#FFFFFF" math="0" shadow="0">
      <root>
        <mxCell id="0" />
        <mxCell id="1" parent="0" />
        <mxCell id="uU9NHwG-sWs-j1iagzVs-92" value="" style="endArrow=none;dashed=1;html=1;dashPattern=1 3;strokeWidth=4;rounded=0;" edge="1" parent="1">
          <mxGeometry width="50" height="50" relative="1" as="geometry">
            <mxPoint x="623.41" y="1060" as="sourcePoint" />
            <mxPoint x="623.41" y="30" as="targetPoint" />
          </mxGeometry>
        </mxCell>
        <mxCell id="uU9NHwG-sWs-j1iagzVs-5" value="VPC - 10.0.0.0/16" style="sketch=0;outlineConnect=0;gradientColor=none;html=1;whiteSpace=wrap;fontSize=12;fontStyle=0;shape=mxgraph.aws4.group;grIcon=mxgraph.aws4.group_vpc;strokeColor=#879196;fillColor=none;verticalAlign=top;align=left;spacingLeft=30;fontColor=#879196;dashed=0;movable=1;resizable=1;rotatable=1;deletable=1;editable=1;locked=0;connectable=1;" vertex="1" parent="1">
          <mxGeometry x="230" y="170" width="1220" height="750" as="geometry" />
        </mxCell>
        <mxCell id="uU9NHwG-sWs-j1iagzVs-43" value="AZ: us-west-2b" style="sketch=0;outlineConnect=0;gradientColor=none;html=1;whiteSpace=wrap;fontSize=12;fontStyle=0;shape=mxgraph.aws4.group;grIcon=mxgraph.aws4.group_availability_zone;strokeColor=#545B64;fillColor=none;verticalAlign=top;align=left;spacingLeft=30;fontColor=#545B64;dashed=1;" vertex="1" parent="1">
          <mxGeometry x="255" y="210" width="1160" height="250" as="geometry" />
        </mxCell>
        <mxCell id="uU9NHwG-sWs-j1iagzVs-2" value="AWS Cloud" style="points=[[0,0],[0.25,0],[0.5,0],[0.75,0],[1,0],[1,0.25],[1,0.5],[1,0.75],[1,1],[0.75,1],[0.5,1],[0.25,1],[0,1],[0,0.75],[0,0.5],[0,0.25]];outlineConnect=0;gradientColor=none;html=1;whiteSpace=wrap;fontSize=12;fontStyle=0;container=1;pointerEvents=0;collapsible=0;recursiveResize=0;shape=mxgraph.aws4.group;grIcon=mxgraph.aws4.group_aws_cloud_alt;strokeColor=#232F3E;fillColor=none;verticalAlign=top;align=left;spacingLeft=30;fontColor=#232F3E;dashed=0;" vertex="1" parent="1">
          <mxGeometry x="170" y="90" width="1370" height="910" as="geometry" />
        </mxCell>
        <mxCell id="uU9NHwG-sWs-j1iagzVs-87" value="&lt;font style=&quot;font-size: 25px;&quot;&gt;WEB TIER&lt;/font&gt;" style="text;html=1;align=center;verticalAlign=middle;whiteSpace=wrap;rounded=0;" vertex="1" parent="uU9NHwG-sWs-j1iagzVs-2">
          <mxGeometry x="120" y="870" width="140" height="30" as="geometry" />
        </mxCell>
        <mxCell id="uU9NHwG-sWs-j1iagzVs-88" value="&lt;font style=&quot;font-size: 24px;&quot;&gt;APPLICATION TIER&lt;/font&gt;" style="text;html=1;align=center;verticalAlign=middle;whiteSpace=wrap;rounded=0;" vertex="1" parent="uU9NHwG-sWs-j1iagzVs-2">
          <mxGeometry x="520" y="870" width="250" height="30" as="geometry" />
        </mxCell>
        <mxCell id="uU9NHwG-sWs-j1iagzVs-89" value="&lt;font style=&quot;font-size: 24px;&quot;&gt;DATABASE TIER&lt;/font&gt;" style="text;html=1;align=center;verticalAlign=middle;whiteSpace=wrap;rounded=0;" vertex="1" parent="uU9NHwG-sWs-j1iagzVs-2">
          <mxGeometry x="940" y="870" width="220" height="30" as="geometry" />
        </mxCell>
        <mxCell id="uU9NHwG-sWs-j1iagzVs-6" value="AZ: us-west-2a" style="sketch=0;outlineConnect=0;gradientColor=none;html=1;whiteSpace=wrap;fontSize=12;fontStyle=0;shape=mxgraph.aws4.group;grIcon=mxgraph.aws4.group_availability_zone;strokeColor=#545B64;fillColor=none;verticalAlign=top;align=left;spacingLeft=30;fontColor=#545B64;dashed=1;" vertex="1" parent="1">
          <mxGeometry x="255" y="605" width="1165" height="280" as="geometry" />
        </mxCell>
        <mxCell id="uU9NHwG-sWs-j1iagzVs-4" value="Region - us-west-2" style="points=[[0,0],[0.25,0],[0.5,0],[0.75,0],[1,0],[1,0.25],[1,0.5],[1,0.75],[1,1],[0.75,1],[0.5,1],[0.25,1],[0,1],[0,0.75],[0,0.5],[0,0.25]];outlineConnect=0;gradientColor=none;html=1;whiteSpace=wrap;fontSize=12;fontStyle=0;container=0;pointerEvents=0;collapsible=0;recursiveResize=0;shape=mxgraph.aws4.group;grIcon=mxgraph.aws4.group_region;strokeColor=#00A4A6;fillColor=none;verticalAlign=top;align=left;spacingLeft=30;fontColor=#147EBA;dashed=1;" vertex="1" parent="1">
          <mxGeometry x="200" y="130" width="1300" height="830" as="geometry" />
        </mxCell>
        <mxCell id="uU9NHwG-sWs-j1iagzVs-12" value="Public subnet 2 | 10.016.0/20" style="points=[[0,0],[0.25,0],[0.5,0],[0.75,0],[1,0],[1,0.25],[1,0.5],[1,0.75],[1,1],[0.75,1],[0.5,1],[0.25,1],[0,1],[0,0.75],[0,0.5],[0,0.25]];outlineConnect=0;gradientColor=none;html=1;whiteSpace=wrap;fontSize=12;fontStyle=0;container=1;pointerEvents=0;collapsible=0;recursiveResize=0;shape=mxgraph.aws4.group;grIcon=mxgraph.aws4.group_security_group;grStroke=0;strokeColor=#7AA116;fillColor=#F2F6E8;verticalAlign=top;align=left;spacingLeft=30;fontColor=#248814;dashed=0;" vertex="1" parent="1">
          <mxGeometry x="270" y="240" width="340" height="190" as="geometry" />
        </mxCell>
        <mxCell id="uU9NHwG-sWs-j1iagzVs-76" value="" style="sketch=0;points=[[0,0,0],[0.25,0,0],[0.5,0,0],[0.75,0,0],[1,0,0],[0,1,0],[0.25,1,0],[0.5,1,0],[0.75,1,0],[1,1,0],[0,0.25,0],[0,0.5,0],[0,0.75,0],[1,0.25,0],[1,0.5,0],[1,0.75,0]];outlineConnect=0;fontColor=#232F3E;fillColor=#ED7100;strokeColor=#ffffff;dashed=0;verticalLabelPosition=bottom;verticalAlign=top;align=center;html=1;fontSize=12;fontStyle=0;aspect=fixed;shape=mxgraph.aws4.resourceIcon;resIcon=mxgraph.aws4.ec2;" vertex="1" parent="uU9NHwG-sWs-j1iagzVs-12">
          <mxGeometry x="260.67999999999995" y="109.18" width="43.63636363636364" height="43.63636363636364" as="geometry" />
        </mxCell>
        <mxCell id="uU9NHwG-sWs-j1iagzVs-77" value="NAT Gateway 2" style="sketch=0;outlineConnect=0;fontColor=#232F3E;gradientColor=none;fillColor=#8C4FFF;strokeColor=none;dashed=0;verticalLabelPosition=bottom;verticalAlign=top;align=center;html=1;fontSize=12;fontStyle=0;aspect=fixed;pointerEvents=1;shape=mxgraph.aws4.nat_gateway;" vertex="1" parent="uU9NHwG-sWs-j1iagzVs-12">
          <mxGeometry x="257.5" y="20" width="50" height="50" as="geometry" />
        </mxCell>
        <mxCell id="uU9NHwG-sWs-j1iagzVs-13" value="Private subnet 2 | 10.0.144.0/20" style="points=[[0,0],[0.25,0],[0.5,0],[0.75,0],[1,0],[1,0.25],[1,0.5],[1,0.75],[1,1],[0.75,1],[0.5,1],[0.25,1],[0,1],[0,0.75],[0,0.5],[0,0.25]];outlineConnect=0;gradientColor=none;html=1;whiteSpace=wrap;fontSize=12;fontStyle=0;container=1;pointerEvents=0;collapsible=0;recursiveResize=0;shape=mxgraph.aws4.group;grIcon=mxgraph.aws4.group_security_group;grStroke=0;strokeColor=#00A4A6;fillColor=#E6F6F7;verticalAlign=top;align=left;spacingLeft=30;fontColor=#147EBA;dashed=0;" vertex="1" parent="1">
          <mxGeometry x="680" y="240" width="300" height="190" as="geometry" />
        </mxCell>
        <mxCell id="uU9NHwG-sWs-j1iagzVs-14" value="Private subnet 1 | 10.0.128.0/20" style="points=[[0,0],[0.25,0],[0.5,0],[0.75,0],[1,0],[1,0.25],[1,0.5],[1,0.75],[1,1],[0.75,1],[0.5,1],[0.25,1],[0,1],[0,0.75],[0,0.5],[0,0.25]];outlineConnect=0;gradientColor=none;html=1;whiteSpace=wrap;fontSize=12;fontStyle=0;container=1;pointerEvents=0;collapsible=0;recursiveResize=0;shape=mxgraph.aws4.group;grIcon=mxgraph.aws4.group_security_group;grStroke=0;strokeColor=#00A4A6;fillColor=#E6F6F7;verticalAlign=top;align=left;spacingLeft=30;fontColor=#147EBA;dashed=0;" vertex="1" parent="1">
          <mxGeometry x="682" y="620" width="298" height="240" as="geometry" />
        </mxCell>
        <mxCell id="uU9NHwG-sWs-j1iagzVs-27" value="" style="sketch=0;points=[[0,0,0],[0.25,0,0],[0.5,0,0],[0.75,0,0],[1,0,0],[0,1,0],[0.25,1,0],[0.5,1,0],[0.75,1,0],[1,1,0],[0,0.25,0],[0,0.5,0],[0,0.75,0],[1,0.25,0],[1,0.5,0],[1,0.75,0]];outlineConnect=0;fontColor=#232F3E;fillColor=#ED7100;strokeColor=#ffffff;dashed=0;verticalLabelPosition=bottom;verticalAlign=top;align=center;html=1;fontSize=12;fontStyle=0;aspect=fixed;shape=mxgraph.aws4.resourceIcon;resIcon=mxgraph.aws4.auto_scaling2;" vertex="1" parent="uU9NHwG-sWs-j1iagzVs-14">
          <mxGeometry x="114" y="50" width="78" height="78" as="geometry" />
        </mxCell>
        <mxCell id="uU9NHwG-sWs-j1iagzVs-29" value="ASG" style="points=[[0,0],[0.25,0],[0.5,0],[0.75,0],[1,0],[1,0.25],[1,0.5],[1,0.75],[1,1],[0.75,1],[0.5,1],[0.25,1],[0,1],[0,0.75],[0,0.5],[0,0.25]];outlineConnect=0;gradientColor=none;html=1;whiteSpace=wrap;fontSize=12;fontStyle=0;container=0;pointerEvents=0;collapsible=0;recursiveResize=0;shape=mxgraph.aws4.groupCenter;grIcon=mxgraph.aws4.group_auto_scaling_group;grStroke=1;strokeColor=#D86613;fillColor=none;verticalAlign=top;align=center;fontColor=#D86613;dashed=1;spacingTop=25;direction=south;" vertex="1" parent="1">
          <mxGeometry x="750" y="280" width="170" height="520" as="geometry" />
        </mxCell>
        <mxCell id="uU9NHwG-sWs-j1iagzVs-35" value="AppServer-sg" style="fontStyle=0;verticalAlign=top;align=center;spacingTop=-2;fillColor=none;rounded=0;whiteSpace=wrap;html=1;strokeColor=#FF0000;strokeWidth=2;dashed=1;container=1;collapsible=0;expand=0;recursiveResize=0;" vertex="1" parent="1">
          <mxGeometry x="780" y="290" width="110" height="480" as="geometry" />
        </mxCell>
        <mxCell id="uU9NHwG-sWs-j1iagzVs-10" value="Public subnet 1 | 10.0.0.0/20" style="points=[[0,0],[0.25,0],[0.5,0],[0.75,0],[1,0],[1,0.25],[1,0.5],[1,0.75],[1,1],[0.75,1],[0.5,1],[0.25,1],[0,1],[0,0.75],[0,0.5],[0,0.25]];outlineConnect=0;gradientColor=none;html=1;whiteSpace=wrap;fontSize=12;fontStyle=0;container=1;pointerEvents=0;collapsible=0;recursiveResize=0;shape=mxgraph.aws4.group;grIcon=mxgraph.aws4.group_security_group;grStroke=0;strokeColor=#7AA116;fillColor=#F2F6E8;verticalAlign=top;align=left;spacingLeft=30;fontColor=#248814;dashed=0;" vertex="1" parent="1">
          <mxGeometry x="280" y="625" width="330" height="230" as="geometry" />
        </mxCell>
        <mxCell id="uU9NHwG-sWs-j1iagzVs-49" value="&lt;font style=&quot;font-size: 7px;&quot;&gt;BASTION HOST&lt;/font&gt;" style="text;html=1;align=center;verticalAlign=middle;whiteSpace=wrap;rounded=0;" vertex="1" parent="uU9NHwG-sWs-j1iagzVs-10">
          <mxGeometry x="250.68000000000006" y="194.99636363636364" width="45" height="16.363636363636367" as="geometry" />
        </mxCell>
        <mxCell id="uU9NHwG-sWs-j1iagzVs-15" value="Private subnet 4 | 10.0.176.0/20" style="points=[[0,0],[0.25,0],[0.5,0],[0.75,0],[1,0],[1,0.25],[1,0.5],[1,0.75],[1,1],[0.75,1],[0.5,1],[0.25,1],[0,1],[0,0.75],[0,0.5],[0,0.25]];outlineConnect=0;gradientColor=none;html=1;whiteSpace=wrap;fontSize=12;fontStyle=0;container=1;pointerEvents=0;collapsible=0;recursiveResize=0;shape=mxgraph.aws4.group;grIcon=mxgraph.aws4.group_security_group;grStroke=0;strokeColor=#00A4A6;fillColor=#E6F6F7;verticalAlign=top;align=left;spacingLeft=30;fontColor=#147EBA;dashed=0;" vertex="1" parent="1">
          <mxGeometry x="1050" y="240" width="330" height="190" as="geometry" />
        </mxCell>
        <mxCell id="uU9NHwG-sWs-j1iagzVs-16" value="Private subnet 3 | 10.0.160.0/20" style="points=[[0,0],[0.25,0],[0.5,0],[0.75,0],[1,0],[1,0.25],[1,0.5],[1,0.75],[1,1],[0.75,1],[0.5,1],[0.25,1],[0,1],[0,0.75],[0,0.5],[0,0.25]];outlineConnect=0;gradientColor=none;html=1;whiteSpace=wrap;fontSize=12;fontStyle=0;container=1;pointerEvents=0;collapsible=0;recursiveResize=0;shape=mxgraph.aws4.group;grIcon=mxgraph.aws4.group_security_group;grStroke=0;strokeColor=#00A4A6;fillColor=#E6F6F7;verticalAlign=top;align=left;spacingLeft=30;fontColor=#147EBA;dashed=0;" vertex="1" parent="1">
          <mxGeometry x="1050" y="630" width="330" height="230" as="geometry" />
        </mxCell>
        <mxCell id="uU9NHwG-sWs-j1iagzVs-36" value="Internet&amp;nbsp;&lt;div&gt;Gateway&lt;br&gt;&lt;/div&gt;" style="sketch=0;outlineConnect=0;fontColor=#232F3E;gradientColor=none;fillColor=#8C4FFF;strokeColor=none;dashed=0;verticalLabelPosition=bottom;verticalAlign=top;align=center;html=1;fontSize=12;fontStyle=0;aspect=fixed;pointerEvents=1;shape=mxgraph.aws4.internet_gateway;" vertex="1" parent="1">
          <mxGeometry x="211" y="508" width="42" height="42" as="geometry" />
        </mxCell>
        <mxCell id="uU9NHwG-sWs-j1iagzVs-50" value="" style="sketch=0;outlineConnect=0;fontColor=#232F3E;gradientColor=none;fillColor=#8C4FFF;strokeColor=none;dashed=0;verticalLabelPosition=bottom;verticalAlign=top;align=center;html=1;fontSize=12;fontStyle=0;aspect=fixed;pointerEvents=1;shape=mxgraph.aws4.application_load_balancer;" vertex="1" parent="1">
          <mxGeometry x="590" y="496" width="68" height="68" as="geometry" />
        </mxCell>
        <mxCell id="uU9NHwG-sWs-j1iagzVs-54" value="" style="group" vertex="1" connectable="0" parent="1">
          <mxGeometry x="340" y="270" width="160" height="560" as="geometry" />
        </mxCell>
        <mxCell id="uU9NHwG-sWs-j1iagzVs-33" value="WebServer-sg" style="fontStyle=0;verticalAlign=top;align=center;spacingTop=-2;fillColor=none;rounded=0;whiteSpace=wrap;html=1;strokeColor=#FF0000;strokeWidth=2;dashed=1;container=1;collapsible=0;expand=0;recursiveResize=0;" vertex="1" parent="uU9NHwG-sWs-j1iagzVs-54">
          <mxGeometry x="21" y="20" width="110" height="510" as="geometry" />
        </mxCell>
        <mxCell id="uU9NHwG-sWs-j1iagzVs-26" value="" style="sketch=0;points=[[0,0,0],[0.25,0,0],[0.5,0,0],[0.75,0,0],[1,0,0],[0,1,0],[0.25,1,0],[0.5,1,0],[0.75,1,0],[1,1,0],[0,0.25,0],[0,0.5,0],[0,0.75,0],[1,0.25,0],[1,0.5,0],[1,0.75,0]];outlineConnect=0;fontColor=#232F3E;fillColor=#ED7100;strokeColor=#ffffff;dashed=0;verticalLabelPosition=bottom;verticalAlign=top;align=center;html=1;fontSize=12;fontStyle=0;aspect=fixed;shape=mxgraph.aws4.resourceIcon;resIcon=mxgraph.aws4.auto_scaling2;" vertex="1" parent="uU9NHwG-sWs-j1iagzVs-33">
          <mxGeometry x="16" y="42" width="78" height="78" as="geometry" />
        </mxCell>
        <mxCell id="uU9NHwG-sWs-j1iagzVs-37" value="web-ASG" style="points=[[0,0],[0.25,0],[0.5,0],[0.75,0],[1,0],[1,0.25],[1,0.5],[1,0.75],[1,1],[0.75,1],[0.5,1],[0.25,1],[0,1],[0,0.75],[0,0.5],[0,0.25]];outlineConnect=0;gradientColor=none;html=1;whiteSpace=wrap;fontSize=12;fontStyle=0;container=1;pointerEvents=0;collapsible=0;recursiveResize=0;shape=mxgraph.aws4.groupCenter;grIcon=mxgraph.aws4.group_auto_scaling_group;grStroke=1;strokeColor=#D86613;fillColor=none;verticalAlign=top;align=center;fontColor=#D86613;dashed=1;spacingTop=25;direction=south;" vertex="1" parent="uU9NHwG-sWs-j1iagzVs-54">
          <mxGeometry width="160" height="560" as="geometry" />
        </mxCell>
        <mxCell id="uU9NHwG-sWs-j1iagzVs-25" value="" style="sketch=0;points=[[0,0,0],[0.25,0,0],[0.5,0,0],[0.75,0,0],[1,0,0],[0,1,0],[0.25,1,0],[0.5,1,0],[0.75,1,0],[1,1,0],[0,0.25,0],[0,0.5,0],[0,0.75,0],[1,0.25,0],[1,0.5,0],[1,0.75,0]];outlineConnect=0;fontColor=#232F3E;fillColor=#ED7100;strokeColor=#ffffff;dashed=0;verticalLabelPosition=bottom;verticalAlign=top;align=center;html=1;fontSize=12;fontStyle=0;aspect=fixed;shape=mxgraph.aws4.resourceIcon;resIcon=mxgraph.aws4.auto_scaling2;" vertex="1" parent="uU9NHwG-sWs-j1iagzVs-37">
          <mxGeometry x="39" y="431" width="78" height="78" as="geometry" />
        </mxCell>
        <mxCell id="uU9NHwG-sWs-j1iagzVs-60" value="" style="endArrow=classic;startArrow=classic;html=1;rounded=0;entryX=0.536;entryY=0.745;entryDx=0;entryDy=0;entryPerimeter=0;" edge="1" parent="uU9NHwG-sWs-j1iagzVs-37" target="uU9NHwG-sWs-j1iagzVs-33">
          <mxGeometry width="50" height="50" relative="1" as="geometry">
            <mxPoint y="266" as="sourcePoint" />
            <mxPoint x="80" y="366" as="targetPoint" />
            <Array as="points">
              <mxPoint x="80" y="266" />
            </Array>
          </mxGeometry>
        </mxCell>
        <mxCell id="uU9NHwG-sWs-j1iagzVs-61" value="" style="endArrow=classic;html=1;rounded=0;" edge="1" parent="uU9NHwG-sWs-j1iagzVs-54">
          <mxGeometry width="50" height="50" relative="1" as="geometry">
            <mxPoint x="79.17" y="270" as="sourcePoint" />
            <mxPoint x="79.34000000000002" y="160" as="targetPoint" />
          </mxGeometry>
        </mxCell>
        <mxCell id="uU9NHwG-sWs-j1iagzVs-63" value="public-rtb" style="sketch=0;outlineConnect=0;fontColor=#232F3E;gradientColor=none;strokeColor=#232F3E;fillColor=#ffffff;dashed=0;verticalLabelPosition=bottom;verticalAlign=top;align=center;html=1;fontSize=12;fontStyle=0;aspect=fixed;shape=mxgraph.aws4.resourceIcon;resIcon=mxgraph.aws4.route_table;" vertex="1" parent="uU9NHwG-sWs-j1iagzVs-54">
          <mxGeometry x="21" y="210" width="50" height="50" as="geometry" />
        </mxCell>
        <mxCell id="uU9NHwG-sWs-j1iagzVs-55" value="" style="sketch=0;outlineConnect=0;fontColor=#232F3E;gradientColor=none;fillColor=#8C4FFF;strokeColor=none;dashed=0;verticalLabelPosition=bottom;verticalAlign=top;align=center;html=1;fontSize=12;fontStyle=0;aspect=fixed;pointerEvents=1;shape=mxgraph.aws4.application_load_balancer;" vertex="1" parent="1">
          <mxGeometry x="280" y="503" width="54" height="54" as="geometry" />
        </mxCell>
        <mxCell id="uU9NHwG-sWs-j1iagzVs-56" value="" style="endArrow=classic;startArrow=classic;html=1;rounded=0;" edge="1" parent="1">
          <mxGeometry width="50" height="50" relative="1" as="geometry">
            <mxPoint x="255" y="529.17" as="sourcePoint" />
            <mxPoint x="280" y="529" as="targetPoint" />
          </mxGeometry>
        </mxCell>
        <mxCell id="uU9NHwG-sWs-j1iagzVs-57" value="" style="group" vertex="1" connectable="0" parent="1">
          <mxGeometry x="829" y="430" width="1" height="210" as="geometry" />
        </mxCell>
        <mxCell id="uU9NHwG-sWs-j1iagzVs-58" value="" style="group" vertex="1" connectable="0" parent="uU9NHwG-sWs-j1iagzVs-57">
          <mxGeometry width="1" height="210" as="geometry" />
        </mxCell>
        <mxCell id="uU9NHwG-sWs-j1iagzVs-51" value="" style="endArrow=classic;startArrow=classic;html=1;rounded=0;" edge="1" parent="uU9NHwG-sWs-j1iagzVs-58" source="uU9NHwG-sWs-j1iagzVs-50">
          <mxGeometry width="50" height="50" relative="1" as="geometry">
            <mxPoint x="-159" y="140" as="sourcePoint" />
            <mxPoint x="1" y="210" as="targetPoint" />
            <Array as="points">
              <mxPoint x="1" y="100" />
            </Array>
          </mxGeometry>
        </mxCell>
        <mxCell id="uU9NHwG-sWs-j1iagzVs-53" value="" style="endArrow=classic;html=1;rounded=0;" edge="1" parent="uU9NHwG-sWs-j1iagzVs-58">
          <mxGeometry width="50" height="50" relative="1" as="geometry">
            <mxPoint x="0.16999999999995907" y="100" as="sourcePoint" />
            <mxPoint as="targetPoint" />
          </mxGeometry>
        </mxCell>
        <mxCell id="uU9NHwG-sWs-j1iagzVs-59" value="" style="endArrow=classic;startArrow=classic;html=1;rounded=0;" edge="1" parent="1">
          <mxGeometry width="50" height="50" relative="1" as="geometry">
            <mxPoint x="658" y="530" as="sourcePoint" />
            <mxPoint x="830" y="640" as="targetPoint" />
            <Array as="points">
              <mxPoint x="830" y="530" />
            </Array>
          </mxGeometry>
        </mxCell>
        <mxCell id="uU9NHwG-sWs-j1iagzVs-62" value="" style="endArrow=classic;startArrow=classic;html=1;rounded=0;" edge="1" parent="1" target="uU9NHwG-sWs-j1iagzVs-50">
          <mxGeometry width="50" height="50" relative="1" as="geometry">
            <mxPoint x="480" y="530" as="sourcePoint" />
            <mxPoint x="590" y="510.00222222222214" as="targetPoint" />
          </mxGeometry>
        </mxCell>
        <mxCell id="uU9NHwG-sWs-j1iagzVs-64" value="private-rtb&lt;div&gt;&lt;div&gt;&lt;br&gt;&lt;/div&gt;&lt;/div&gt;" style="sketch=0;outlineConnect=0;fontColor=#232F3E;gradientColor=none;strokeColor=#232F3E;fillColor=#ffffff;dashed=0;verticalLabelPosition=bottom;verticalAlign=top;align=center;html=1;fontSize=12;fontStyle=0;aspect=fixed;shape=mxgraph.aws4.resourceIcon;resIcon=mxgraph.aws4.route_table;" vertex="1" parent="1">
          <mxGeometry x="830" y="496" width="50" height="50" as="geometry" />
        </mxCell>
        <mxCell id="uU9NHwG-sWs-j1iagzVs-19" value="Security Group" style="fontStyle=0;verticalAlign=top;align=center;spacingTop=-2;fillColor=none;rounded=0;whiteSpace=wrap;html=1;strokeColor=#FF0000;strokeWidth=2;dashed=1;container=1;collapsible=0;expand=0;recursiveResize=0;" vertex="1" parent="1">
          <mxGeometry x="1140" y="280" width="140" height="510" as="geometry" />
        </mxCell>
        <mxCell id="uU9NHwG-sWs-j1iagzVs-65" value="app-ASG&lt;div&gt;&lt;br&gt;&lt;/div&gt;" style="points=[[0,0],[0.25,0],[0.5,0],[0.75,0],[1,0],[1,0.25],[1,0.5],[1,0.75],[1,1],[0.75,1],[0.5,1],[0.25,1],[0,1],[0,0.75],[0,0.5],[0,0.25]];outlineConnect=0;gradientColor=none;html=1;whiteSpace=wrap;fontSize=12;fontStyle=0;container=1;pointerEvents=0;collapsible=0;recursiveResize=0;shape=mxgraph.aws4.groupCenter;grIcon=mxgraph.aws4.group_auto_scaling_group;grStroke=1;strokeColor=#D86613;fillColor=none;verticalAlign=top;align=center;fontColor=#D86613;dashed=1;spacingTop=25;direction=south;" vertex="1" parent="uU9NHwG-sWs-j1iagzVs-19">
          <mxGeometry x="-20" y="-10" width="200" height="560" as="geometry" />
        </mxCell>
        <mxCell id="uU9NHwG-sWs-j1iagzVs-69" value="" style="endArrow=classic;html=1;rounded=0;" edge="1" parent="uU9NHwG-sWs-j1iagzVs-65">
          <mxGeometry width="50" height="50" relative="1" as="geometry">
            <mxPoint x="90" y="260" as="sourcePoint" />
            <mxPoint x="89.17000000000007" y="150" as="targetPoint" />
          </mxGeometry>
        </mxCell>
        <mxCell id="uU9NHwG-sWs-j1iagzVs-67" value="RDS Read Replica" style="outlineConnect=0;dashed=0;verticalLabelPosition=bottom;verticalAlign=top;align=center;html=1;shape=mxgraph.aws3.rds_db_instance_read_replica;fillColor=#2E73B8;gradientColor=none;" vertex="1" parent="uU9NHwG-sWs-j1iagzVs-65">
          <mxGeometry x="65.25" y="56.82" width="49.5" height="66" as="geometry" />
        </mxCell>
        <mxCell id="uU9NHwG-sWs-j1iagzVs-66" value="RDS" style="sketch=0;points=[[0,0,0],[0.25,0,0],[0.5,0,0],[0.75,0,0],[1,0,0],[0,1,0],[0.25,1,0],[0.5,1,0],[0.75,1,0],[1,1,0],[0,0.25,0],[0,0.5,0],[0,0.75,0],[1,0.25,0],[1,0.5,0],[1,0.75,0]];outlineConnect=0;fontColor=#232F3E;fillColor=#C925D1;strokeColor=#ffffff;dashed=0;verticalLabelPosition=bottom;verticalAlign=top;align=center;html=1;fontSize=12;fontStyle=0;aspect=fixed;shape=mxgraph.aws4.resourceIcon;resIcon=mxgraph.aws4.rds;" vertex="1" parent="uU9NHwG-sWs-j1iagzVs-19">
          <mxGeometry x="36" y="390" width="78" height="78" as="geometry" />
        </mxCell>
        <mxCell id="uU9NHwG-sWs-j1iagzVs-68" value="" style="endArrow=classic;startArrow=classic;html=1;rounded=0;edgeStyle=orthogonalEdgeStyle;" edge="1" parent="1">
          <mxGeometry width="50" height="50" relative="1" as="geometry">
            <mxPoint x="920" y="527" as="sourcePoint" />
            <mxPoint x="1210" y="630" as="targetPoint" />
          </mxGeometry>
        </mxCell>
        <mxCell id="uU9NHwG-sWs-j1iagzVs-70" value="" style="edgeStyle=orthogonalEdgeStyle;rounded=0;orthogonalLoop=1;jettySize=auto;html=1;" edge="1" parent="1" source="uU9NHwG-sWs-j1iagzVs-63" target="uU9NHwG-sWs-j1iagzVs-10">
          <mxGeometry relative="1" as="geometry" />
        </mxCell>
        <mxCell id="uU9NHwG-sWs-j1iagzVs-73" value="Application&amp;nbsp;&lt;div&gt;Load Balancer&lt;/div&gt;" style="text;html=1;align=center;verticalAlign=middle;whiteSpace=wrap;rounded=0;" vertex="1" parent="1">
          <mxGeometry x="594" y="572" width="60" height="30" as="geometry" />
        </mxCell>
        <mxCell id="uU9NHwG-sWs-j1iagzVs-74" value="Application&amp;nbsp;&lt;div&gt;Load Balancer&lt;/div&gt;" style="text;html=1;align=center;verticalAlign=middle;whiteSpace=wrap;rounded=0;" vertex="1" parent="1">
          <mxGeometry x="280" y="564" width="50" height="26" as="geometry" />
        </mxCell>
        <mxCell id="uU9NHwG-sWs-j1iagzVs-28" value="" style="sketch=0;points=[[0,0,0],[0.25,0,0],[0.5,0,0],[0.75,0,0],[1,0,0],[0,1,0],[0.25,1,0],[0.5,1,0],[0.75,1,0],[1,1,0],[0,0.25,0],[0,0.5,0],[0,0.75,0],[1,0.25,0],[1,0.5,0],[1,0.75,0]];outlineConnect=0;fontColor=#232F3E;fillColor=#ED7100;strokeColor=#ffffff;dashed=0;verticalLabelPosition=bottom;verticalAlign=top;align=center;html=1;fontSize=12;fontStyle=0;aspect=fixed;shape=mxgraph.aws4.resourceIcon;resIcon=mxgraph.aws4.auto_scaling2;" vertex="1" parent="1">
          <mxGeometry x="793.5" y="332" width="78" height="78" as="geometry" />
        </mxCell>
        <mxCell id="uU9NHwG-sWs-j1iagzVs-48" value="" style="sketch=0;points=[[0,0,0],[0.25,0,0],[0.5,0,0],[0.75,0,0],[1,0,0],[0,1,0],[0.25,1,0],[0.5,1,0],[0.75,1,0],[1,1,0],[0,0.25,0],[0,0.5,0],[0,0.75,0],[1,0.25,0],[1,0.5,0],[1,0.75,0]];outlineConnect=0;fontColor=#232F3E;fillColor=#ED7100;strokeColor=#ffffff;dashed=0;verticalLabelPosition=bottom;verticalAlign=top;align=center;html=1;fontSize=12;fontStyle=0;aspect=fixed;shape=mxgraph.aws4.resourceIcon;resIcon=mxgraph.aws4.ec2;" vertex="1" parent="1">
          <mxGeometry x="530" y="770" width="43.63636363636364" height="43.63636363636364" as="geometry" />
        </mxCell>
        <mxCell id="uU9NHwG-sWs-j1iagzVs-75" value="&lt;font style=&quot;font-size: 7px;&quot;&gt;BASTION HOST&lt;/font&gt;" style="text;html=1;align=center;verticalAlign=middle;whiteSpace=wrap;rounded=0;" vertex="1" parent="1">
          <mxGeometry x="528.64" y="399.99636363636364" width="45" height="16.363636363636367" as="geometry" />
        </mxCell>
        <mxCell id="uU9NHwG-sWs-j1iagzVs-78" value="NAT Gateway 1" style="sketch=0;outlineConnect=0;fontColor=#232F3E;gradientColor=none;fillColor=#8C4FFF;strokeColor=none;dashed=0;verticalLabelPosition=bottom;verticalAlign=top;align=center;html=1;fontSize=12;fontStyle=0;aspect=fixed;pointerEvents=1;shape=mxgraph.aws4.nat_gateway;" vertex="1" parent="1">
          <mxGeometry x="530" y="650" width="50" height="50" as="geometry" />
        </mxCell>
        <mxCell id="uU9NHwG-sWs-j1iagzVs-81" value="" style="endArrow=classic;startArrow=classic;html=1;rounded=0;edgeStyle=orthogonalEdgeStyle;" edge="1" parent="1" source="uU9NHwG-sWs-j1iagzVs-78" target="uU9NHwG-sWs-j1iagzVs-36">
          <mxGeometry width="50" height="50" relative="1" as="geometry">
            <mxPoint x="300" y="1090" as="sourcePoint" />
            <mxPoint x="470" y="1090" as="targetPoint" />
            <Array as="points">
              <mxPoint x="520" y="675" />
              <mxPoint x="520" y="870" />
              <mxPoint x="232" y="870" />
            </Array>
          </mxGeometry>
        </mxCell>
        <mxCell id="uU9NHwG-sWs-j1iagzVs-82" value="" style="endArrow=classic;startArrow=classic;html=1;rounded=0;edgeStyle=orthogonalEdgeStyle;" edge="1" parent="1" source="uU9NHwG-sWs-j1iagzVs-77" target="uU9NHwG-sWs-j1iagzVs-36">
          <mxGeometry width="50" height="50" relative="1" as="geometry">
            <mxPoint x="518" y="324.94000000000005" as="sourcePoint" />
            <mxPoint x="220" y="199.94000000000005" as="targetPoint" />
            <Array as="points">
              <mxPoint x="520" y="290" />
              <mxPoint x="520" y="230" />
              <mxPoint x="232" y="230" />
            </Array>
          </mxGeometry>
        </mxCell>
        <mxCell id="uU9NHwG-sWs-j1iagzVs-84" value="User" style="html=1;verticalLabelPosition=bottom;align=center;labelBackgroundColor=#ffffff;verticalAlign=top;strokeWidth=2;strokeColor=#0080F0;shadow=0;dashed=0;shape=mxgraph.ios7.icons.user;" vertex="1" parent="1">
          <mxGeometry x="70" y="514" width="30" height="30" as="geometry" />
        </mxCell>
        <mxCell id="uU9NHwG-sWs-j1iagzVs-86" value="" style="endArrow=classic;startArrow=classic;html=1;rounded=0;exitX=1.006;exitY=0.567;exitDx=0;exitDy=0;exitPerimeter=0;" edge="1" parent="1" source="uU9NHwG-sWs-j1iagzVs-84" target="uU9NHwG-sWs-j1iagzVs-36">
          <mxGeometry width="50" height="50" relative="1" as="geometry">
            <mxPoint x="90" y="520.58" as="sourcePoint" />
            <mxPoint x="160" y="520.58" as="targetPoint" />
          </mxGeometry>
        </mxCell>
        <mxCell id="uU9NHwG-sWs-j1iagzVs-91" value="" style="endArrow=none;dashed=1;html=1;dashPattern=1 3;strokeWidth=4;rounded=0;" edge="1" parent="1">
          <mxGeometry width="50" height="50" relative="1" as="geometry">
            <mxPoint x="1020" y="1070" as="sourcePoint" />
            <mxPoint x="1020" y="40" as="targetPoint" />
          </mxGeometry>
        </mxCell>
      </root>
    </mxGraphModel>
  </diagram>
</mxfile>
